<?xml version="1.0" encoding="UTF-8" standalone="no"?>
<!-- Created with Inkscape (http://www.inkscape.org/) -->

<svg
   width="100"
   height="100"
   viewBox="0 0 100 100"
   version="1.1"
   id="svg1"
   inkscape:version="1.4 (86a8ad7, 2024-10-11)"
   sodipodi:docname="favicon.svg"
   inkscape:export-filename="favicon.png"
   inkscape:export-xdpi="491.51999"
   inkscape:export-ydpi="491.51999"
   xmlns:inkscape="http://www.inkscape.org/namespaces/inkscape"
   xmlns:sodipodi="http://sodipodi.sourceforge.net/DTD/sodipodi-0.dtd"
   xmlns="http://www.w3.org/2000/svg"
   xmlns:svg="http://www.w3.org/2000/svg">
  <sodipodi:namedview
     id="namedview1"
     pagecolor="#505050"
     bordercolor="#eeeeee"
     borderopacity="1"
     inkscape:showpageshadow="0"
     inkscape:pageopacity="0"
     inkscape:pagecheckerboard="0"
     inkscape:deskcolor="#505050"
     inkscape:document-units="px"
     inkscape:zoom="3.0087393"
     inkscape:cx="50.187132"
     inkscape:cy="112.83796"
     inkscape:window-width="1920"
     inkscape:window-height="1111"
     inkscape:window-x="-9"
     inkscape:window-y="-9"
     inkscape:window-maximized="1"
     inkscape:current-layer="layer1"
     inkscape:export-bgcolor="#27272aff" />
  <defs
     id="defs1" />
  <g
     inkscape:label="Layer 1"
     inkscape:groupmode="layer"
     id="layer1">
    <path
       style="fill:#f43f5e;fill-opacity:1;stroke-width:0.19077"
       d="M 9.6777981,98.222131 9.0291934,97.5735 V 50.033641 L 8.9396265,3.2111154 9.6779049,1.8451481 11.021454,1.1292625 50.044825,1.1965674 h 39.718311 l 0.64863,0.6486306 0.648607,0.6486056 V 36.202852 69.9119 l -0.648607,0.64863 c -0.467411,0.467381 -0.819202,0.648606 -1.259102,0.648606 -0.43989,0 -0.79168,-0.18115 -1.259082,-0.648606 L 87.244976,69.9119 V 37.46193 5.0119633 h -9.835921 c -7.819897,0 -9.805797,0.04879 -9.689001,0.238445 0.08081,0.1311073 0.504563,0.7535415 0.941745,1.3830814 1.532505,2.206855 2.562372,4.7877663 3.393475,8.5042553 1.065121,4.762948 1.121067,5.693483 1.20904,20.115655 0.08107,13.294999 0.07956,13.36353 -0.328119,14.453048 -0.496405,1.326759 -1.795593,2.725804 -3.146674,3.388571 -1.387634,0.680656 -3.617959,0.664994 -4.949473,-0.03478 l -0.943298,-0.495731 -0.912896,0.937241 c -1.844859,1.894025 -4.565059,2.514558 -6.719296,1.532805 l -0.93414,-0.425723 -0.647704,0.756718 c -0.374055,0.436983 -1.182366,1.019934 -1.913115,1.37968 -1.033521,0.508789 -1.495247,0.623859 -2.519686,0.628013 -0.689889,0.0024 -1.57624,-0.0633 -1.96971,-0.146619 l -0.715386,-0.151625 v 6.937776 c 0,7.745358 -0.02001,7.890328 -1.296886,9.581111 -0.524779,0.694693 -1.07623,1.135277 -2.029535,1.621551 -1.159873,0.591659 -1.474131,0.667245 -2.758981,0.663742 -2.484533,-0.0075 -4.451017,-1.2842 -5.57361,-3.620687 l -0.54995,-1.144611 -1.49e-4,-13.210806 c -1.01e-4,-7.265968 -0.06456,-13.207504 -0.143118,-13.203425 -0.07881,0.0051 -0.357692,0.451469 -0.620007,0.994213 -0.685461,1.418285 -2.383676,3.081021 -3.845371,3.765029 -3.702252,1.732493 -6.743616,1.052912 -8.099249,-1.809704 -0.832606,-1.758264 -0.581976,-3.658719 1.848386,-14.014764 1.440705,-6.138997 1.965534,-8.03337 3.641228,-13.142925 2.78558,-8.493973 4.073884,-11.053392 7.287437,-14.4778683 L 36.364857,5.0120895 H 24.604837 12.844818 V 50.033815 95.055517 H 50.044947 87.2451 v -4.597563 -4.59756 l 0.648605,-0.648605 c 0.880122,-0.880119 1.638064,-0.880119 2.518178,0 l 0.64838,0.64843 v 5.856641 5.85664 l -0.648607,0.648631 -0.648631,0.648606 H 50.044718 10.32643 Z M 43.02923,71.444903 c 0.305574,-0.305551 0.633468,-0.891378 0.728671,-1.301839 0.09633,-0.415591 0.175143,-8.11714 0.177645,-17.380316 l 0.0051,-16.634057 0.460402,-0.535238 c 0.613776,-0.713558 1.969309,-0.765551 2.634303,-0.101079 l 0.434532,0.434206 0.09533,8.05504 c 0.10458,8.82797 0.0623,8.520269 1.277195,9.321249 0.657511,0.433505 1.419836,0.451319 2.259747,0.0528 1.358037,-0.644404 1.316977,-0.360296 1.423091,-9.850885 l 0.09533,-8.531953 0.434531,-0.43423 c 0.607346,-0.606947 1.95745,-0.606947 2.564796,-2.5e-5 0.433955,0.433629 0.434655,0.444113 0.529934,7.916951 0.09508,7.457099 0.09683,7.484871 0.539642,8.105605 0.920503,1.290581 2.272533,1.490269 3.346637,0.494329 1.057915,-0.980978 1.073727,-1.117915 1.073727,-9.30356 v -7.530886 l 0.460402,-0.535263 c 0.382314,-0.444463 0.611652,-0.535263 1.351907,-0.535263 0.740282,0 0.969617,0.09082 1.351905,0.535263 l 0.460426,0.535263 v 6.567071 c 0,7.237172 0.0653,7.713961 1.164503,8.496625 1.219499,0.868386 2.57756,0.600043 3.340408,-0.660013 0.34211,-0.56514 0.359024,-1.14814 0.346539,-11.944948 C 69.573384,24.954985 69.439776,22.023063 68.73555,17.888907 67.921816,13.111289 66.406226,9.4737877 64.2662,7.1623723 62.08927,4.8110989 63.229201,5.0119133 52.060016,5.0119133 H 42.38763 l -0.878043,0.6041192 c -2.558219,1.7601146 -5.484662,5.2212955 -6.860512,8.1141615 -1.2511,2.630552 -4.459272,12.504604 -5.659003,17.417221 -1.195755,4.896206 -2.693478,11.615553 -2.934452,13.164895 -0.314331,2.021053 0.08732,2.497418 1.803727,2.139024 1.440427,-0.300769 2.48273,-1.049108 3.257814,-2.339012 0.754192,-1.255127 0.800405,-1.404575 2.740941,-8.863375 0.846243,-3.252611 1.622152,-6.071367 1.724261,-6.263849 0.314833,-0.593485 1.414608,-0.944597 2.173828,-0.694042 1.311498,0.432829 1.223751,-1.071602 1.22878,21.069632 0.0024,11.056771 0.0808,20.364959 0.174892,20.769916 0.179648,0.774383 0.804258,1.579916 1.442155,1.860095 0.695019,0.305275 1.832251,0.04954 2.427611,-0.545796 z M 31.031165,90.89849 c -4.785964,-1.71065 -5.204407,-8.250548 -0.670397,-10.477094 1.543862,-0.758145 3.485475,-0.758145 5.029313,0 3.286012,1.613669 4.187301,5.769593 1.883364,8.684303 -1.426842,1.805103 -4.07781,2.56645 -6.24228,1.792791 z m 2.770442,-3.745788 c 1.287553,-0.66582 1.248921,-2.718174 -0.0623,-3.315662 -0.978852,-0.44599 -2.045625,-0.124353 -2.499645,0.753616 -0.895483,1.731667 0.830378,3.457502 2.562019,2.562046 z M 48.20046,90.89849 c -4.785965,-1.71065 -5.204407,-8.250548 -0.670374,-10.477094 1.543838,-0.758145 3.485451,-0.758145 5.029288,0 3.286013,1.613669 4.187302,5.769593 1.883366,8.684303 -1.426841,1.805103 -4.07781,2.56645 -6.24228,1.792791 z m 2.770441,-3.745788 c 1.287553,-0.66582 1.248921,-2.718174 -0.0623,-3.315662 -0.978849,-0.44599 -2.045622,-0.124353 -2.499643,0.753616 -0.895483,1.731667 0.830379,3.457502 2.562021,2.562046 z m 14.398852,3.745788 c -4.785966,-1.71065 -5.204406,-8.250548 -0.670373,-10.477094 1.543837,-0.758145 3.48545,-0.758145 5.029289,0 3.286011,1.613669 4.1873,5.769593 1.883365,8.684303 -1.426841,1.805103 -4.077811,2.56645 -6.242281,1.792791 z m 2.770441,-3.745788 c 1.287555,-0.66582 1.248923,-2.718174 -0.0623,-3.315662 -1.732517,-0.789372 -3.417144,0.96744 -2.505273,2.612662 0.500334,0.902688 1.599533,1.203633 2.567651,0.703 z m 19.753283,-8.007575 c -0.713759,-0.713759 -0.819771,-1.328614 -0.376758,-2.185265 0.301446,-0.582976 1.015825,-0.981526 1.759284,-0.981526 0.722843,0 1.78426,1.134855 1.78426,1.907711 0,0.439884 -0.181147,0.791696 -0.648607,1.25908 -0.4674,0.467381 -0.81919,0.648606 -1.259103,0.648606 -0.439877,0 -0.791667,-0.181149 -1.259076,-0.648606 z M 22.446519,75.636906 c -4.785966,-1.710674 -5.204407,-8.250573 -0.670399,-10.47712 1.543863,-0.758143 3.485476,-0.758143 5.029314,0 3.286013,1.61367 4.187301,5.76962 1.883365,8.684303 -1.426841,1.805102 -4.077809,2.566476 -6.24228,1.792817 z m 2.77044,-3.745813 c 1.287555,-0.665819 1.248922,-2.718173 -0.0623,-3.315637 -0.97885,-0.445989 -2.045623,-0.124352 -2.499644,0.753617 -0.895484,1.731641 0.83038,3.457503 2.562021,2.56202 z m 31.568146,3.745813 c -4.785964,-1.710674 -5.204407,-8.250573 -0.670374,-10.47712 1.543839,-0.758143 3.485451,-0.758143 5.029289,0 3.286013,1.61367 4.187302,5.76962 1.883366,8.684303 -1.426842,1.805102 -4.07781,2.566476 -6.242281,1.792817 z m 2.770441,-3.745813 c 1.287554,-0.665819 1.248922,-2.718173 -0.0623,-3.315637 -1.732516,-0.789395 -3.417145,0.967417 -2.505274,2.612637 0.500334,0.902688 1.599534,1.203636 2.567651,0.703 z M 73.9544,75.636906 c -4.78594,-1.710674 -5.204407,-8.250573 -0.670374,-10.47712 1.543838,-0.758143 3.485451,-0.758143 5.02929,0 3.286011,1.61367 4.187301,5.76962 1.883364,8.684303 -1.42684,1.805102 -4.07781,2.566476 -6.24228,1.792817 z m 2.770441,-3.745813 c 1.287553,-0.665819 1.248921,-2.718173 -0.0623,-3.315637 -1.732517,-0.789395 -3.417144,0.967417 -2.505274,2.612637 0.500333,0.902688 1.599534,1.203636 2.567651,0.703 z"
       id="path1"
       sodipodi:nodetypes="ccccccccccccssscccsssssssscsscsssscssssscscsssssscccccccccssccccccccssccsscsssscsssssscssscssssssscssssssscccssssssssssssssssssssssssssssssssssssssssssssssssssssssssssssssss" />
  </g>
</svg>
